<svg width="21" height="22" viewBox="0 0 21 22" fill="none" xmlns="http://www.w3.org/2000/svg">
<path d="M6.125 16.25V13.625" stroke="#515266" stroke-width="1.3125" stroke-linecap="round"/>
<path d="M10.5 16.25V11" stroke="#515266" stroke-width="1.3125" stroke-linecap="round"/>
<path d="M14.875 16.25V8.375" stroke="#515266" stroke-width="1.3125" stroke-linecap="round"/>
<path d="M19.25 11C19.25 15.1248 19.25 17.1872 17.9686 18.4686C16.6872 19.75 14.6248 19.75 10.5 19.75C6.37521 19.75 4.31281 19.75 3.03141 18.4686C1.75 17.1872 1.75 15.1248 1.75 11C1.75 6.87521 1.75 4.81281 3.03141 3.53141C4.31281 2.25 6.37521 2.25 10.5 2.25C14.6248 2.25 16.6872 2.25 17.9686 3.53141C18.8206 4.38343 19.1062 5.58073 19.2018 7.5" stroke="#515266" stroke-width="1.3125" stroke-linecap="round"/>
</svg>
