<svg width="24" height="24" viewBox="0 0 24 24" fill="none" xmlns="http://www.w3.org/2000/svg">
<g clip-path="url(#clip0_1084_1134)">
<path d="M13.8301 16.8611L12.1064 15.2914C11.2612 14.5216 10.8386 14.1367 10.3596 13.9909C9.93767 13.8624 9.48716 13.8624 9.06531 13.9909C8.58631 14.1367 8.16367 14.5216 7.31836 15.2914L4.13377 18.175M13.8301 16.8611L14.1811 16.5414C15.0264 15.7716 15.4491 15.3867 15.928 15.2409C16.3499 15.1124 16.8004 15.1124 17.2222 15.2409C17.7012 15.3867 18.1239 15.7716 18.9692 16.5414L20.2486 17.6551M13.8301 16.8611L17.6077 20.2809M17.5556 8.66667C17.5556 9.894 16.5607 10.8889 15.3333 10.8889C14.106 10.8889 13.1111 9.894 13.1111 8.66667C13.1111 7.43937 14.106 6.44444 15.3333 6.44444C16.5607 6.44444 17.5556 7.43937 17.5556 8.66667ZM22 12C22 17.5229 17.5229 22 12 22C6.47716 22 2 17.5229 2 12C2 6.47716 6.47716 2 12 2C17.5229 2 22 6.47716 22 12Z" stroke="#75838D" stroke-width="2.22222" stroke-linecap="round" stroke-linejoin="round"/>
</g>
<defs>
<clipPath id="clip0_1084_1134">
<rect width="24" height="24" fill="white"/>
</clipPath>
</defs>
</svg>
