<svg width="21" height="21" viewBox="0 0 21 21" fill="none" xmlns="http://www.w3.org/2000/svg">
<path d="M7.875 14C7.875 14.4833 7.48325 14.875 7 14.875C6.51675 14.875 6.125 14.4833 6.125 14C6.125 13.5167 6.51675 13.125 7 13.125C7.48325 13.125 7.875 13.5167 7.875 14Z" fill="#515266"/>
<path d="M11.375 14C11.375 14.4833 10.9833 14.875 10.5 14.875C10.0167 14.875 9.625 14.4833 9.625 14C9.625 13.5167 10.0167 13.125 10.5 13.125C10.9833 13.125 11.375 13.5167 11.375 14Z" fill="#515266"/>
<path d="M14.875 14C14.875 14.4833 14.4833 14.875 14 14.875C13.5167 14.875 13.125 14.4833 13.125 14C13.125 13.5167 13.5167 13.125 14 13.125C14.4833 13.125 14.875 13.5167 14.875 14Z" fill="#515266"/>
<path d="M5.25 8.75V7C5.25 6.70188 5.27485 6.40956 5.32259 6.125M15.75 8.75V7C15.75 4.1005 13.3995 1.75 10.5 1.75C8.932 1.75 7.52449 2.43743 6.5625 3.52735" stroke="#515266" stroke-width="1.3125" stroke-linecap="round"/>
<path d="M9.625 19.25H7C4.52512 19.25 3.28769 19.25 2.51884 18.4811C1.75 17.7123 1.75 16.4748 1.75 14C1.75 11.5252 1.75 10.2877 2.51884 9.51886C3.28769 8.75 4.52512 8.75 7 8.75H14C16.4748 8.75 17.7123 8.75 18.4811 9.51886C19.25 10.2877 19.25 11.5252 19.25 14C19.25 16.4748 19.25 17.7123 18.4811 18.4811C17.7123 19.25 16.4748 19.25 14 19.25H13.125" stroke="#515266" stroke-width="1.3125" stroke-linecap="round"/>
</svg>
