<svg width="30" height="30" viewBox="0 0 30 30" fill="none" xmlns="http://www.w3.org/2000/svg">
<path d="M15 21.25C13.6193 21.25 12.5 22.3693 12.5 23.75C12.5 25.1307 13.6193 26.25 15 26.25C16.3807 26.25 17.5 25.1307 17.5 23.75C17.5 22.3693 16.3807 21.25 15 21.25Z" fill="#1C274C"/>
<path d="M15 12.5C13.6193 12.5 12.5 13.6193 12.5 15C12.5 16.3807 13.6193 17.5 15 17.5C16.3807 17.5 17.5 16.3807 17.5 15C17.5 13.6193 16.3807 12.5 15 12.5Z" fill="#1C274C"/>
<path d="M15 3.75C13.6193 3.75 12.5 4.86925 12.5 6.25C12.5 7.63075 13.6193 8.75 15 8.75C16.3807 8.75 17.5 7.63075 17.5 6.25C17.5 4.86925 16.3807 3.75 15 3.75Z" fill="#1C274C"/>
</svg>
