<svg width="22" height="22" viewBox="0 0 22 22" fill="none" xmlns="http://www.w3.org/2000/svg">
<path d="M19.75 9.6875V11C19.75 15.1248 19.75 17.1872 18.4686 18.4686C17.1872 19.75 15.1248 19.75 11 19.75C6.87521 19.75 4.81281 19.75 3.53141 18.4686C2.25 17.1872 2.25 15.1248 2.25 11C2.25 6.87521 2.25 4.81281 3.53141 3.53141C4.81281 2.25 6.87521 2.25 11 2.25H12.3125" stroke="#515266" stroke-width="1.3125" stroke-linecap="round"/>
<path d="M17.125 7.5C18.5747 7.5 19.75 6.32475 19.75 4.875C19.75 3.42525 18.5747 2.25 17.125 2.25C15.6753 2.25 14.5 3.42525 14.5 4.875C14.5 6.32475 15.6753 7.5 17.125 7.5Z" stroke="#515266" stroke-width="1.3125"/>
<path d="M6.625 12.75H14.5" stroke="#515266" stroke-width="1.3125" stroke-linecap="round"/>
<path d="M6.625 15.8125H11.875" stroke="#515266" stroke-width="1.3125" stroke-linecap="round"/>
</svg>
