<svg width="37" height="36" viewBox="0 0 37 36" fill="none" xmlns="http://www.w3.org/2000/svg">
<path d="M26 25.5H26.015M23.9 21H27.5C28.8978 21 29.5967 21 30.1481 21.2283C30.8831 21.5328 31.4672 22.1169 31.7717 22.8519C32 23.4033 32 24.1021 32 25.5C32 26.8979 32 27.5967 31.7717 28.1481C31.4672 28.8831 30.8831 29.4672 30.1481 29.7717C29.5967 30 28.8978 30 27.5 30H9.49997C8.10215 30 7.40324 30 6.85191 29.7717C6.11684 29.4672 5.53281 28.8831 5.22833 28.1481C4.99997 27.5967 4.99997 26.8979 4.99997 25.5C4.99997 24.1021 4.99997 23.4033 5.22833 22.8519C5.53281 22.1169 6.11684 21.5328 6.85191 21.2283C7.40324 21 8.10215 21 9.49997 21H13.1M18.5 22.5V6M18.5 6L23 10.5M18.5 6L14 10.5" stroke="#75838D" stroke-width="3" stroke-linecap="round" stroke-linejoin="round"/>
</svg>
