<svg width="20" height="20" viewBox="0 0 20 20" fill="none" xmlns="http://www.w3.org/2000/svg">
<path fill-rule="evenodd" clip-rule="evenodd" d="M5.02737 13.1383L7.44965 12.9178L12.0062 8.35725L9.81253 6.16279L5.24217 10.7331L5.02737 13.1383ZM10.9029 5.0733L13.0957 7.26613L14.68 5.67948L12.4879 3.48747L10.9029 5.0733ZM3.55468 14.6128C3.38381 14.4419 3.29838 14.2043 3.31953 13.9635L3.62791 10.5705C3.66209 10.1986 3.82645 9.84794 4.0917 9.58269L11.4114 2.26295C11.9826 1.68932 13.0184 1.7178 13.6214 2.3191L15.8492 4.54691L15.85 4.54773C16.4724 5.17099 16.4977 6.16204 15.9053 6.75601L8.58476 14.0766C8.32032 14.341 7.96963 14.5054 7.59697 14.5395L4.20399 14.8479C4.17958 14.8495 4.15517 14.8504 4.12995 14.8504C3.91595 14.8504 3.70847 14.7657 3.55468 14.6128ZM16.3349 17.2913C16.3349 17.7388 15.9688 18.105 15.5213 18.105H4.12995C3.68325 18.105 3.31628 17.7388 3.31628 17.2913C3.31628 16.8446 3.68325 16.4777 4.12995 16.4777H15.5213C15.9688 16.4777 16.3349 16.8446 16.3349 17.2913Z" fill="#C5CEE0"/>
</svg>
